<?xml version="1.0" encoding="utf-8"?>
<!-- Generator: Adobe Illustrator 27.0.1, SVG Export Plug-In . SVG Version: 6.00 Build 0)  -->
<svg version="1.1" xmlns="http://www.w3.org/2000/svg" xmlns:xlink="http://www.w3.org/1999/xlink" x="0px" y="0px"
	 viewBox="0 0 499.5 514.5" style="enable-background:new 0 0 499.5 514.5;" xml:space="preserve">
<style type="text/css">
	.st0{fill:#616E7D;}
	.st1{fill:#AAD4C8;}
	.st2{fill:#82BFAB;}
</style>
<g id="Bg">
</g>
<g id="Object">
	<g>
		<path class="st0" d="M8.9,319.3L0,326.7l129.6,16.1c18.8,7.5,38.5,12.8,58.7,16.1c6.8-65.9,76.8-117.8,162-117.8
			c34.5,0,66.5,8.6,92.9,23.1c16.5-24.8,25.8-53,25.8-82.8C468.9,81.4,364.3,0,235.8,0C107.2,0,2.6,81.4,2.6,181.4
			c0,35.9,13.5,70.5,39,100.3l-0.2,0.2l2.5,2.6C41,290.4,24.2,306.6,8.9,319.3z M80.5,100.9h303.9v16.5H80.5V100.9z M80.5,162.1
			h303.9v16.5H80.5V162.1z M80.5,223.4h160.9v16.5H80.5V223.4z"/>
		<path class="st1" d="M201,369.5c0,63.4,67,115,149.2,115c18.2,0,36.1-2.6,53.2-7.6l3.6-1.1l41.8,38.7v-58.9l2.8-2
			c30.4-21.8,47.8-52.4,47.8-84.2c0-63.4-67-115-149.2-115C268,254.5,201,306.1,201,369.5z"/>
		<rect x="80.5" y="100.9" class="st2" width="303.9" height="16.5"/>
		<rect x="80.5" y="162.1" class="st2" width="303.9" height="16.5"/>
		<rect x="80.5" y="223.4" class="st2" width="160.9" height="16.5"/>
	</g>
</g>
</svg>
